<svg xmlns="http://www.w3.org/2000/svg" width="400" height="300" viewBox="0 0 400 300">
  <defs>
    <linearGradient id="studentBg" x1="0%" y1="0%" x2="100%" y2="100%">
      <stop offset="0%" style="stop-color:#f7971e;stop-opacity:1" />
      <stop offset="100%" style="stop-color:#ffd200;stop-opacity:1" />
    </linearGradient>
  </defs>
  <rect width="400" height="300" fill="url(#studentBg)"/>
  
  <!-- Dashboard screen -->
  <rect x="60" y="50" width="280" height="180" rx="8" fill="#fff" opacity="0.95"/>
  
  <!-- Header -->
  <rect x="70" y="60" width="260" height="30" fill="#f7971e" opacity="0.3" rx="4"/>
  <text x="200" y="82" font-family="Arial, sans-serif" font-size="14" font-weight="bold" fill="#f7971e" text-anchor="middle">Student Dashboard</text>
  
  <!-- Cards -->
  <rect x="80" y="105" width="70" height="50" fill="#f7971e" opacity="0.2" rx="6"/>
  <text x="115" y="125" font-family="Arial, sans-serif" font-size="20" font-weight="bold" fill="#f7971e" text-anchor="middle">250</text>
  <text x="115" y="142" font-family="Arial, sans-serif" font-size="10" fill="#666" text-anchor="middle">Students</text>
  
  <rect x="165" y="105" width="70" height="50" fill="#ffd200" opacity="0.3" rx="6"/>
  <text x="200" y="125" font-family="Arial, sans-serif" font-size="20" font-weight="bold" fill="#f7971e" text-anchor="middle">48</text>
  <text x="200" y="142" font-family="Arial, sans-serif" font-size="10" fill="#666" text-anchor="middle">Classes</text>
  
  <rect x="250" y="105" width="70" height="50" fill="#f7971e" opacity="0.2" rx="6"/>
  <text x="285" y="125" font-family="Arial, sans-serif" font-size="20" font-weight="bold" fill="#f7971e" text-anchor="middle">12</text>
  <text x="285" y="142" font-family="Arial, sans-serif" font-size="10" fill="#666" text-anchor="middle">Teachers</text>
  
  <!-- Chart bars -->
  <rect x="80" y="195" width="20" height="25" fill="#f7971e" opacity="0.6" rx="2"/>
  <rect x="110" y="185" width="20" height="35" fill="#ffd200" opacity="0.6" rx="2"/>
  <rect x="140" y="175" width="20" height="45" fill="#f7971e" opacity="0.6" rx="2"/>
  <rect x="170" y="180" width="20" height="40" fill="#ffd200" opacity="0.6" rx="2"/>
  <rect x="200" y="170" width="20" height="50" fill="#f7971e" opacity="0.6" rx="2"/>
  <rect x="230" y="190" width="20" height="30" fill="#ffd200" opacity="0.6" rx="2"/>
  <rect x="260" y="185" width="20" height="35" fill="#f7971e" opacity="0.6" rx="2"/>
  <rect x="290" y="175" width="20" height="45" fill="#ffd200" opacity="0.6" rx="2"/>
  
  <!-- Student icon -->
  <circle cx="320" cy="80" r="15" fill="#fff" opacity="0.9"/>
  <circle cx="320" cy="75" r="6" fill="#f7971e"/>
  <path d="M 310 85 Q 320 88 330 85" fill="#f7971e"/>
  
  <text x="200" y="260" font-family="Arial, sans-serif" font-size="24" font-weight="bold" fill="#fff" text-anchor="middle">Student Management</text>
  <text x="200" y="285" font-family="Arial, sans-serif" font-size="14" fill="#fff" text-anchor="middle" opacity="0.9">Track & Analyze Performance</text>
</svg>
